PathFileType	4	(X/Y/Z)	C:/Users/beibeiliu/ov580/test_trc/User2\sequence.27_training_dense_left.trc
DataRate	CameraRate	NumFrames	NumMarkers	Units	OrigDataRate	OrigDataStartFrame	OrigNumFrames
120	120	16	19	mm	120	35	278
Frame#	Time	ThumbCMC			ThumbMCP			ThumbIP			ThumbTip			IndexMCP			IndexPIP			IndexTip			MiddleMCP			MiddlePIP			MiddleTip			RingMCP			RingPIP			RingTip			PinkyMCP			PinkyPIP			PinkyTip			BackHand1			BackHand2			BackHand3	
		X0	Y0	Z0	X1	Y1	Z1	X2	Y2	Z2	X3	Y3	Z3	X4	Y4	Z4	X5	Y5	Z5	X6	Y6	Z6	X7	Y7	Z7	X8	Y8	Z8	X9	Y9	Z9	X10	Y10	Z10	X11	Y11	Z11	X12	Y12	Z12	X13	Y13	Z13	X14	Y14	Z14	X15	Y15	Z15	X16	Y16	Z16	X17	Y17	Z17	X18	Y18	Z18	
34	0.283333	-132.109	-35.4175	105.018	-106.656	-52.8253	84.128	-94.8802	-65.6302	54.762	-95.8279	-75.569	28.5239	-141.159	3.71077	35.773	-129.69	10.3293	2.2731	-121.432	4.10092	-21.4959	-171.827	9.86103	26.415	-172.066	22.0135	-4.65691	-167.85	29.2926	-36.835	-197.51	-8.17245	27.0966	-197.346	2.56013	-0.451013	-198.803	7.79796	-30.4114	-213.372	-34.7148	35.8338	-217.644	-26.1961	6.90164	-222.353	-17.389	-13.93	-197.212	-19.6086	77.097	-203.296	-24.3962	111.057	-171.28	-10.0856	95.7223	
35	0.291667	-129.821	-36.5772	110.166	-106.524	-49.3645	82.8943	-95.7326	-60.2042	54.9839	-96.9256	-69.0225	27.9896	-134.698	10.3419	40.9558	-118.823	15.8684	9.69856	-111.874	6.59058	-14.4646	-169.769	15.2037	30.1472	-162.824	29.9486	1.65775	-157.767	39.603	-28.0772	-191.914	-1.60852	29.1801	-190.648	11.274	1.92174	-187.208	17.8936	-24.0516	-208.622	-23.9913	32.0737	-210.471	-16.1011	7.08055	-215.498	-8.88959	-11.1754	-197.005	-16.1776	76.7037	-203.909	-22.8515	110.034	-168.57	-10.8939	101.172	
36	0.3	-128.659	-35.7152	113.012	-106.453	-46.5597	85.5469	-94.1917	-54.9749	56.4979	-90.9362	-60.6798	26.349	-132.143	14.7927	44.6583	-118.13	21.0149	18.8074	-107.324	7.59676	-9.07916	-162.03	21.7628	39.3463	-154.55	39.122	12.9321	-151.868	48.5673	-19.3675	-184.956	6.24067	35.0689	-182.349	20.1001	10.9392	-174.767	32.9325	-21.0702	-200.392	-14.59	33.1814	-200.934	-4.88818	10.1852	-207.231	6.89726	-11.1116	-195.929	-14.6622	80.888	-201.619	-20.2325	110.426	-166.702	-8.73733	104.711	
37	0.308333	-128.621	-34.0571	113.193	-103.745	-42.6591	87.2851	-90.4916	-49.8317	59.5988	-88.043	-52.1067	29.1368	-124.996	22.1489	47.7966	-109.317	25.0851	21.8836	-97.1848	7.10561	-1.65727	-158.368	27.3737	45.738	-149.878	48.0694	18.5174	-143.347	57.8106	-12.0725	-181.041	14.7812	38.915	-173.743	33.3815	13.5083	-170.316	44.4365	-16.4461	-198.508	-9.38069	39.2508	-199.099	3.55946	13.8084	-197.516	18.292	-3.07855	-188.683	-9.72201	86.2439	-202.882	-19.0984	111.776	-160.658	-4.09658	108.7	
38	0.316667	-129.366	-32.1164	114.719	-99.6254	-41.5389	91.5656	-84.4245	-43.8043	60.0118	-88.1681	-45.54	33.1395	-122.389	24.8458	56.5553	-101.994	28.2318	27.6742	-96.3345	8.03364	2.43702	-150.336	34.497	52.3688	-144.386	55.4812	23.2512	-135.573	66.4852	-9.55945	-173.928	23.64	42.4349	-171.31	40.4293	18.9618	-164.312	51.8503	-8.02706	-193.068	-0.359639	38.3257	-196.645	11.92	15.8434	-198.058	29.6121	-5.57108	-188.991	-7.39618	85.0796	-196.224	-16.6236	113.445	-159.596	-1.92003	112.834	
39	0.325	-129.988	-31.5034	115.666	-104.434	-38.7262	93.3873	-84.2912	-37.7776	59.4203	-86.9359	-34.7044	28.8814	-118.869	30.0578	56.0362	-103.179	31.9983	32.5778	-93.9292	7.01527	7.02342	-152.192	41.1293	52.1103	-141.596	60.7297	25.6006	-134.07	69.9639	-1.72441	-171.748	28.1618	46.6899	-169.33	46.2774	21.4632	-162.111	59.147	-6.91619	-193.281	6.41141	39.1636	-194.596	20.1996	17.165	-194.475	35.7985	-4.1862	-185.961	-1.96925	88.6972	-198.334	-16.8211	112.78	-159.126	-3.31068	116.543	
40	0.333333	-125.366	-31.1018	117.698	-103.186	-34.1887	92.1806	-84.4631	-31.5873	61.7718	-84.8743	-27.5923	32.0953	-119.925	33.7967	59.7713	-102.424	32.5265	34.5298	-98.1653	9.68752	11.3589	-151.252	44.3111	57.1654	-141.38	64.4678	32.5564	-126.874	75.4442	3.69193	-174.598	33.0061	49.7697	-168.856	52.4044	28.2709	-156.228	65.0311	-0.957303	-191.94	10.1458	45.5921	-196.159	25.3136	21.7826	-193.512	43.5446	3.57027	-189.256	1.61492	86.9745	-198.784	-15.4363	115.466	-162.885	-1.34157	117.996	
41	0.341667	-127.33	-29.9308	119.184	-106.76	-34.1561	94.1509	-84.9265	-26.7128	60.0097	-88.8702	-19.9727	33.4173	-119.731	34.4903	66.3112	-104.019	36.5877	39.1648	-101.099	11.4679	15.8229	-151.187	49.0008	60.5681	-139.677	69.3691	36.662	-130.324	79.3297	5.25415	-175.834	37.2109	53.9032	-166.203	57.5423	33.6177	-153.674	70.0109	6.62954	-196.485	15.6363	46.2418	-195.96	33.1008	24.6467	-196.594	51.4128	4.00254	-188.274	3.24381	91.0532	-197.028	-14.1978	117.214	-161.819	-2.03803	121.549	
42	0.35	-131.105	-27.6263	116.109	-104.597	-30.0774	94.0769	-92.5146	-21.1117	59.9043	-92.8983	-16.2567	35.6028	-120.42	38.056	70.5993	-105.429	36.9359	38.321	-102.329	7.72233	18.4275	-151.759	53.2392	63.3567	-142.398	73.4518	38.6352	-125.821	83.6827	8.13828	-177.023	40.8184	56.9004	-171.73	62.9209	33.6559	-156.354	75.2517	10.0424	-198.319	19.6332	48.9465	-197.789	39.1287	28.8153	-196.932	57.0362	11.4257	-190.687	4.0727	95.1404	-201.035	-14.2547	118.32	-165.095	-1.1272	122.291	
43	0.358333	-131.895	-27.3497	118.136	-110.026	-26.9176	92.424	-93.0966	-21.4278	63.4154	-94.4525	-12.0511	32.4434	-126.928	40.6341	66.7989	-107.858	40.5533	41.4152	-106.409	12.508	20.7443	-156.95	51.0915	65.7088	-141.427	75.7899	40.3641	-131.214	82.7545	10.6152	-178.101	44.7743	57.4356	-174.115	63.1696	38.6318	-162.483	76.6063	9.80804	-198.261	23.0187	51.4168	-201.921	39.8006	32.0525	-201.812	56.8171	16.4264	-191.072	6.73351	94.6816	-205.979	-14.19	117.939	-165.854	-0.982962	123.988	
44	0.366667	-137.297	-28.2231	117.493	-108.184	-27.7562	91.7427	-91.675	-17.7772	58.3976	-99.5539	-12.0822	33.4782	-127.826	38.0184	67.2942	-113.102	38.3364	38.2944	-111.855	5.56264	19.7467	-156.936	49.1054	66.2953	-148.052	71.0691	39.9257	-132.979	80.1964	7.89798	-182.206	43.6022	55.5105	-177.718	61.1868	37.418	-166.156	74.1702	7.90187	-201.42	16.6735	53.1743	-206.605	38.828	30.1882	-204.489	58.3188	13.7055	-194.156	3.14796	94.9351	-202.193	-14.4503	119.609	-165.943	2.17415	122.231	
45	0.375	-135.464	-26.9931	114.495	-110.144	-26.3505	87.5007	-98.0806	-22.301	58.0345	-99.2603	-17.2618	31.9969	-131.069	36.0666	60.8431	-116.114	30.8572	31.028	-114.95	-0.762613	17.8204	-160.032	48.5724	58.2623	-152.297	67.0859	27.4999	-139.674	73.0024	-0.206926	-182.566	38.2184	54.7061	-180.177	55.6054	32.6321	-168.561	68.2899	0.62084	-206.757	15.4929	48.6822	-212.385	30.9	28.5074	-212.539	48.6301	13.2307	-199.932	-0.282857	91.8799	-204.873	-16.4537	120.749	-169.279	-0.938759	119.881	
46	0.383333	-134.196	-23.3397	111.749	-108.339	-26.8519	87.4897	-97.5576	-22.7203	55.6313	-106.459	-19.2039	26.8824	-135.91	32.5376	54.2962	-123.359	27.5457	24.2886	-122.048	-7.54757	13.1068	-163.631	43.9804	51.2402	-155.006	60.8444	18.75	-146.323	62.5873	-10.9292	-192.327	29.9888	47.0621	-184.643	49.4316	24.8605	-177.383	57.4303	-5.19809	-210.49	8.12582	44.4305	-213.515	21.1487	27.3044	-217.089	36.7599	6.91257	-198.242	-1.87932	88.432	-206.944	-20.2342	116.534	-170.049	-1.10932	115.359	
47	0.391667	-134.679	-22.9643	111.062	-113.729	-25.0421	84.9258	-95.1106	-21.0953	51.7551	-101.584	-22.1007	24.2088	-140.289	29.5318	44.3669	-126.275	21.6028	19.5981	-119.475	-13.505	10.822	-171.982	35.0494	44.5479	-165.914	50.291	10.6548	-152.038	52.1949	-20.6212	-196.078	24.4274	38.8326	-191.471	39.131	17.0903	-183.689	46.8919	-14.2115	-210.871	-3.7786	42.5373	-219.266	10.5595	19.3735	-223.077	26.2622	-1.3412	-201.701	-10.9972	85.781	-206.666	-19.8066	113.207	-173.74	-0.641614	111.961	
48	0.4	-138.252	-20.5428	112.113	-114.406	-22.0732	85.7762	-95.1512	-18.807	52.6056	-106.724	-22.8834	24.9239	-146.514	26.0975	40.4346	-132.466	15.61	12.3747	-122.818	-17.7312	7.74045	-179.344	28.2385	37.1691	-169.177	43.2076	3.86444	-156.533	42.4394	-28.7309	-197.893	13.5302	37.2468	-201.571	27.5813	7.38579	-186.824	35.5532	-22.0613	-216.698	-12.5646	37.7527	-222.852	1.1376	14.337	-227.44	11.5178	-3.03589	-206.073	-15.4553	83.5216	-209.181	-24.4476	109.572	-180.99	-3.49854	108.235	
49	0.408333	-135.974	-13.6317	107.315	-115.368	-16.7511	84.402	-98.019	-15.8032	52.7135	-103.859	-20.9421	22.891	-151.268	23.1606	32.6944	-133.844	10.4958	7.97269	-121.842	-19.2079	6.72377	-184.216	24.8439	31.413	-178.852	34.0183	-2.15938	-168.093	30.6855	-37.7152	-205.233	6.68789	31.9159	-204.899	19.1567	2.8971	-198.33	22.7291	-26.5796	-212.154	-22.3181	40.7459	-221.855	-10.083	14.8312	-233.429	-0.559938	-8.08714	-206.66	-16.6147	79.7173	-206.904	-26.9301	110.491	-181.248	-1.9493	104.343	
